<svg aria-hidden="true" style="width:0;height:0;position:absolute;overflow:hidden" xmlns="http://www.w3.org/2000/svg"><defs><symbol id="icon-film" viewBox="0 0 32 32"><path fill="none" stroke="#fff" style="stroke:var(--color1,#fff)" stroke-linejoin="round" stroke-linecap="round" stroke-width="2.667" d="M26.427 2.667H5.574a2.907 2.907 0 0 0-2.907 2.907v20.853a2.907 2.907 0 0 0 2.907 2.907v0h20.853a2.907 2.907 0 0 0 2.907-2.907v0V5.574a2.907 2.907 0 0 0-2.907-2.907v0zm-17.094 0v26.667M22.667 2.667v26.667M2.667 16h26.667M2.667 9.333h6.667M2.667 22.667h6.667m13.333 0h6.667M22.667 9.333h6.667"/></symbol><symbol id="icon-cross" viewBox="0 0 20 20"><path d="M14.348 14.849a1.2 1.2 0 0 1-1.697 0L10 11.819l-2.651 3.029a1.2 1.2 0 1 1-1.697-1.697l2.758-3.15-2.759-3.152a1.2 1.2 0 1 1 1.697-1.697L10 8.183l2.651-3.031a1.2 1.2 0 1 1 1.697 1.697l-2.758 3.152 2.758 3.15a1.2 1.2 0 0 1 0 1.698z"/></symbol><symbol id="icon-light" viewBox="0 0 20 20"><path d="M19 9.199h-.98c-.553 0-1 .359-1 .801s.447.799 1 .799H19c.552 0 1-.357 1-.799 0-.441-.449-.801-1-.801zM10 4.5c-3.051 0-5.5 2.449-5.5 5.5s2.449 5.5 5.5 5.5c3.05 0 5.5-2.449 5.5-5.5S13.049 4.5 10 4.5zm0 9.5c-2.211 0-4-1.791-4-4 0-2.211 1.789-4 4-4a4 4 0 0 1 0 8zm-7-4c0-.441-.449-.801-1-.801H1c-.553 0-1 .359-1 .801s.447.799 1 .799h1c.551 0 1-.358 1-.799zm7-7c.441 0 .799-.447.799-1V1c0-.553-.358-1-.799-1s-.801.447-.801 1v1c0 .553.359 1 .801 1zm0 14c-.442 0-.801.447-.801 1v1c0 .553.359 1 .801 1s.799-.447.799-1v-1c0-.553-.358-1-.799-1zm7.365-13.234c.391-.391.454-.961.142-1.273s-.883-.248-1.272.143l-.7.699c-.391.391-.454.961-.142 1.273s.883.248 1.273-.143l.699-.699zM3.334 15.533l-.7.701c-.391.391-.454.959-.142 1.271s.883.25 1.272-.141l.7-.699c.391-.391.454-.961.142-1.274s-.883-.247-1.272.142zm.431-12.898c-.39-.391-.961-.455-1.273-.143s-.248.883.141 1.274l.7.699c.391.391.96.455 1.272.143s.249-.883-.141-1.273l-.699-.7zm11.769 14.031.7.699c.391.391.96.453 1.272.143.312-.312.249-.883-.142-1.273l-.699-.699c-.391-.391-.961-.455-1.274-.143s-.248.882.143 1.273z"/></symbol><symbol id="icon-magnifying-glass" viewBox="0 0 20 20"><path d="m17.545 15.467-3.779-3.779a6.15 6.15 0 0 0 .898-3.21c0-3.417-2.961-6.377-6.378-6.377S2.1 4.87 2.1 8.287c0 3.416 2.961 6.377 6.377 6.377a6.15 6.15 0 0 0 3.115-.844l3.799 3.801a.953.953 0 0 0 1.346 0l.943-.943c.371-.371.236-.84-.135-1.211zM4.004 8.287c0-2.366 1.917-4.283 4.282-4.283s4.474 2.107 4.474 4.474c0 2.365-1.918 4.283-4.283 4.283s-4.473-2.109-4.473-4.474z"/></symbol><symbol id="icon-moon" viewBox="0 0 20 20"><path d="M13.719 1.8A8.759 8.759 0 1 1 1.8 13.719c3.335 1.867 7.633 1.387 10.469-1.449s3.318-7.134 1.45-10.47z"/></symbol><symbol id="icon-youtube" viewBox="0 0 20 20"><path d="M10 2.3C.172 2.3 0 3.174 0 10s.172 7.7 10 7.7 10-.874 10-7.7-.172-7.7-10-7.7zm3.205 8.034-4.49 2.096c-.393.182-.715-.022-.715-.456V8.026c0-.433.322-.638.715-.456l4.49 2.096c.393.184.393.484 0 .668z"/></symbol></defs></svg>